<?xml version="1.0" encoding="UTF-8"?>
<svg id="Calque_1" data-name="Calque 1" xmlns="http://www.w3.org/2000/svg" viewBox="0 0 1280 720">
  <defs>
    <style>
      .cls-1 {
        fill: #f1f5f1;
      }

      .cls-1, .cls-2 {
        stroke-width: 0px;
      }

      .cls-2 {
        fill: #eb0029;
      }
    </style>
  </defs>
  <rect class="cls-2" width="1280" height="720"/>
  <path class="cls-1" d="M383.5,252.04l-129.79,60.11,32.34,123.07,24.61-3.02-6.77-77.38,8.08-3.6,13.96,79.11,42.06-5.16-7.48-85.41,8-3.56,15.35,87.03,42.55-5.23-8.19-93.62,8.09-3.6,16.78,95.18,42.06-5.17v-133.26l-101.67-25.47ZM386.55,438.7l2.14,12.11,96.48,16.08v-40.31l-98.57,12.11h-.05ZM576.42,413.44v16.6h20.46c0,3.37-.87,6.68-2.52,9.61-1.73,2.92-4.29,5.26-7.36,6.72-3.67,1.67-7.67,2.48-11.7,2.36-4.65.13-9.23-1.15-13.14-3.68-3.82-2.65-6.76-6.37-8.46-10.7-2.12-5.41-3.13-11.18-2.98-16.99-.16-5.76.88-11.49,3.05-16.83,1.77-4.26,4.74-7.91,8.54-10.51,3.83-2.49,8.33-3.76,12.9-3.65,2.38-.02,4.75.29,7.04.93,2.04.58,3.96,1.51,5.69,2.75,1.64,1.18,3.05,2.65,4.18,4.32,1.18,1.8,2.06,3.76,2.63,5.83h22.69c-.59-4.76-2.14-9.36-4.55-13.51-2.39-4.1-5.54-7.71-9.26-10.64-3.91-3.05-8.31-5.41-13.02-6.95-5.12-1.67-10.47-2.49-15.85-2.44-6.29-.05-12.54,1.11-18.4,3.42-5.63,2.24-10.71,5.65-14.93,10-4.41,4.6-7.81,10.06-10,16.04-2.5,6.92-3.71,14.24-3.59,21.6,0,10.46,1.99,19.48,5.97,27.06,3.76,7.3,9.55,13.36,16.68,17.44,14.64,7.81,32.11,8.22,47.1,1.1,6.39-3.24,11.72-8.26,15.34-14.45,3.72-6.3,5.58-13.83,5.57-22.6v-12.82h-42.08ZM858.98,467.07v-99.13h67.9v18.34h-45.49v22.02h36.78v18.34h-36.78v22.08h45.6v18.34h-68ZM992.79,397.03c-.2-3.45-1.9-6.64-4.65-8.73-2.75-2.09-6.57-3.13-11.42-3.13-2.8-.09-5.59.35-8.23,1.31-1.99.72-3.73,1.99-5.03,3.65-1.13,1.52-1.74,3.36-1.75,5.26-.06,1.51.3,3.01,1.04,4.32.78,1.31,1.86,2.41,3.15,3.22,1.52.98,3.15,1.77,4.86,2.35,2,.7,4.03,1.27,6.1,1.72l8.71,2.02c4.27.91,8.43,2.26,12.42,4.05,3.46,1.54,6.65,3.62,9.46,6.15,2.57,2.34,4.62,5.21,6.02,8.4,1.46,3.44,2.18,7.15,2.12,10.89.15,5.66-1.48,11.22-4.65,15.91-3.35,4.66-7.99,8.24-13.34,10.32-6.67,2.58-13.78,3.81-20.93,3.63-7.25.15-14.47-1.1-21.25-3.69-5.71-2.22-10.62-6.1-14.09-11.14-3.36-4.96-5.11-11.14-5.26-18.55h21.59c.06,5.86,3.75,11.07,9.26,13.06,3.04,1.15,6.27,1.72,9.51,1.65,2.98.07,5.95-.42,8.75-1.43,2.21-.78,4.18-2.14,5.69-3.94,1.33-1.67,2.06-3.75,2.06-5.89.02-1.92-.64-3.78-1.86-5.26-1.5-1.64-3.36-2.9-5.44-3.69-2.93-1.19-5.96-2.14-9.05-2.81l-10.6-2.56c-8.45-2.01-15.12-5.19-20.01-9.54-4.89-4.34-7.31-10.23-7.28-17.66-.15-5.7,1.56-11.29,4.89-15.93,3.48-4.71,8.17-8.39,13.57-10.66,6.23-2.64,12.95-3.94,19.71-3.82,6.73-.15,13.42,1.15,19.6,3.82,5.25,2.29,9.76,5.99,13.02,10.7,3.13,4.72,4.78,10.26,4.73,15.93l-21.43.06ZM843,467.07h-22.17v-75.36l-2.27-.03-22.39,75.39h-22.15l-21.79-75.39-2.83.03v75.36h-22.17v-99.13h37.67l19.03,66.44h2.3l19.03-66.44h37.74v99.13ZM692.33,467.07h24.01l-33.28-99.12h-30.42l-33.34,99.12h24.05l6.48-21.74h36.03l6.48,21.74ZM654.97,428.04l10.8-36.33h4.07l10.85,36.33h-25.73ZM1021.04,378.42c-2.1,0-4-1.27-4.82-3.21-.55-1.3-.55-2.77,0-4.07.26-.62.64-1.19,1.12-1.67.48-.48,1.05-.86,1.67-1.13,1.31-.53,2.77-.53,4.07,0,.62.27,1.19.65,1.67,1.13.48.48.86,1.05,1.13,1.67.55,1.3.55,2.77,0,4.07-.27.62-.65,1.19-1.13,1.67-.48.48-1.04.87-1.67,1.13-.65.27-1.34.41-2.04.41h0ZM1021.04,376.99c.68,0,1.35-.17,1.93-.51.56-.32,1.04-.77,1.38-1.31.68-1.19.68-2.65,0-3.84-.35-.55-.83-1-1.39-1.31-1.19-.68-2.65-.68-3.84,0-.54.33-.99.78-1.31,1.31-.7,1.18-.7,2.65,0,3.84.33.54.78.99,1.31,1.31.58.34,1.24.52,1.92.51ZM1019.12,375.48v-4.82h2.34c.31,0,.62.06.91.2.25.12.47.31.62.55.15.26.23.56.22.87.01.31-.07.61-.24.87-.15.24-.37.43-.63.54-.29.13-.6.19-.92.18h-1.58v-.95h1.31c.17,0,.34-.05.47-.16.13-.13.19-.31.19-.49.01-.18-.05-.36-.19-.49-.13-.11-.3-.17-.47-.16h-.72v3.85h-1.31ZM1022.26,373.27l1.08,2.21h-1.46l-.99-2.21h1.37ZM624.81,252.95h22.4v99.13h-22.4v-99.13ZM753.62,302.52c0,10.88-2.06,20.08-6.19,27.6-3.83,7.26-9.67,13.26-16.81,17.31-14.91,7.95-32.8,7.95-47.71,0-7.14-4.06-12.97-10.08-16.81-17.35-4.13-7.59-6.19-16.79-6.19-27.6s2.06-20.03,6.19-27.66c3.82-7.23,9.64-13.23,16.75-17.27,14.91-7.94,32.8-7.94,47.71,0,7.14,4.04,12.97,10.05,16.8,17.31,4.13,7.57,6.19,16.79,6.19,27.66M730.77,302.52c.17-5.83-.83-11.64-2.93-17.08-1.67-4.25-4.56-7.91-8.32-10.51-7.84-4.82-17.72-4.82-25.56,0-3.76,2.6-6.67,6.26-8.35,10.51-3.95,11.05-3.95,23.12,0,34.17,1.67,4.26,4.58,7.92,8.34,10.51,7.84,4.82,17.72,4.82,25.56,0,3.76-2.59,6.66-6.26,8.32-10.51,2.1-5.44,3.1-11.25,2.93-17.08M577.73,317.53l11.51,34.56h24.58l-12.8-37.23h-17.38l-1.04-3.21c3.31-.64,8.98-1.64,13.99-5.06,7.14-4.85,11.44-12.9,11.5-21.54.15-5.87-1.33-11.67-4.28-16.75-2.88-4.92-7.17-8.87-12.3-11.35-6.02-2.79-12.61-4.14-19.24-3.94h-39.99v99.08h22.42v-34.56h23.02ZM577.31,297.02c-3.05,1.12-6.29,1.65-9.54,1.55h-13.06v-27.41h13.02c3.25-.09,6.49.46,9.53,1.63,2.4.95,4.43,2.66,5.78,4.86,1.38,2.22,2.07,4.8,1.97,7.41.11,2.57-.57,5.12-1.94,7.29-1.36,2.14-3.38,3.78-5.76,4.66M755.73,252.95v18.4h38.5l1.05,3.22c-3.26.63-8.76,1.6-13.71,4.86v72.68h22.17v-80.81h25.78v-18.4l-73.8.05Z"/>
</svg>